<svg width="5" height="5" viewBox="0 0 5 5" fill="none" xmlns="http://www.w3.org/2000/svg">
<path d="M2.5 4.99999C1.12799 4.99999 0.0117798 3.88378 0.0117798 2.51177C0.0117798 1.13975 1.12799 0.0235443 2.5 0.0235443C3.87201 0.0235443 4.98822 1.13975 4.98822 2.51177C4.98822 3.88378 3.87201 4.99999 2.5 4.99999Z" fill="white"/>
<path d="M4.4029 4.11299C4.33217 4.19697 4.25602 4.27622 4.17492 4.35023C3.79884 3.81535 3.59623 3.17914 3.59623 2.51177C3.59623 1.8444 3.79884 1.20819 4.17492 0.673321C4.25601 0.747328 4.33217 0.826577 4.40289 0.910557C4.08772 1.38057 3.91839 1.93315 3.91839 2.51177C3.91839 3.09039 4.08772 3.64298 4.4029 4.11299V4.11299ZM0.597046 0.910557C0.912212 1.38057 1.08155 1.93315 1.08155 2.51177C1.08155 3.09039 0.912212 3.64298 0.597046 4.11299C0.667767 4.19697 0.74392 4.27622 0.825015 4.35023C1.20109 3.81535 1.40372 3.17914 1.40372 2.51177C1.40372 1.8444 1.20109 1.20819 0.825015 0.673321C0.743918 0.747328 0.667765 0.826577 0.597046 0.910557V0.910557Z" fill="#BFBCAF"/>
<path d="M0.807426 1.41414C0.727671 1.41414 0.64811 1.39272 0.576206 1.34956C0.519087 1.31528 0.500571 1.24119 0.534858 1.18407C0.569135 1.12694 0.643227 1.10844 0.700346 1.14273C0.773335 1.18654 0.860512 1.18251 0.93354 1.13195C1.00658 1.08141 1.04104 1.00123 1.02575 0.917501C1.01377 0.851973 1.0572 0.789141 1.12274 0.777178C1.18823 0.765215 1.25109 0.808633 1.26306 0.87417C1.29538 1.0511 1.22171 1.22589 1.07083 1.33031C0.990298 1.38605 0.898735 1.41414 0.807426 1.41414V1.41414ZM1.22151 1.98735C1.39559 1.92931 1.51521 1.78211 1.53369 1.6032C1.54053 1.53694 1.49237 1.47768 1.4261 1.47083C1.3599 1.46395 1.30057 1.51215 1.29373 1.57842C1.28498 1.66309 1.22945 1.73041 1.1452 1.75852C1.06095 1.78659 0.976128 1.76609 0.918315 1.70361C0.873061 1.65472 0.796753 1.65178 0.747856 1.69701C0.698969 1.74226 0.69601 1.81857 0.741255 1.86747C0.828462 1.9617 0.947182 2.01208 1.07131 2.01208C1.12106 2.01206 1.17169 2.00397 1.22151 1.98735V1.98735ZM1.59214 3.16822C1.62919 3.11286 1.61436 3.03795 1.559 3.0009C1.50365 2.96383 1.42873 2.97868 1.39167 3.03404C1.34433 3.10479 1.26379 3.13833 1.17614 3.12371C1.08853 3.10912 1.02317 3.05129 1.0013 2.96902C0.984194 2.90465 0.91812 2.86629 0.853755 2.88344C0.78937 2.90055 0.75105 2.96661 0.768159 3.03099C0.81436 3.20481 0.955503 3.3315 1.1365 3.36165C1.16323 3.3661 1.18978 3.36828 1.21601 3.36828C1.36741 3.36828 1.50687 3.29563 1.59214 3.16822ZM1.36612 3.96107C1.41718 3.91828 1.4239 3.84221 1.38112 3.79115C1.33832 3.74009 1.26225 3.73338 1.2112 3.77615C1.14595 3.83083 1.05921 3.84047 0.979184 3.80194C0.899155 3.76343 0.852583 3.68962 0.854604 3.60452C0.856186 3.53793 0.803491 3.48266 0.736889 3.48107C0.735916 3.48104 0.734943 3.48102 0.733969 3.48103C0.668686 3.48103 0.615005 3.53317 0.613442 3.59878C0.609165 3.77859 0.709223 3.93972 0.874565 4.01931C0.940249 4.05093 1.00956 4.06646 1.0779 4.06646C1.18157 4.06645 1.28302 4.03068 1.36612 3.96107ZM1.25876 2.65639C1.4409 2.63411 1.5874 2.51363 1.64109 2.34198C1.66097 2.2784 1.62555 2.21074 1.56198 2.19086C1.49837 2.17096 1.43074 2.2064 1.41085 2.26997C1.38544 2.35121 1.31764 2.40615 1.22948 2.41693C1.14129 2.42772 1.06226 2.39072 1.01803 2.31801C0.983413 2.2611 0.909214 2.24303 0.85229 2.27765C0.795376 2.31227 0.777309 2.38648 0.811928 2.44338C0.89521 2.58029 1.0402 2.66 1.19966 2.66C1.21942 2.65999 1.23916 2.65879 1.25876 2.65639V2.65639ZM4.41961 1.34956C4.47674 1.31528 4.49525 1.24119 4.46097 1.18407C4.42668 1.12695 4.35258 1.10844 4.29548 1.14273C4.22249 1.18653 4.13532 1.18251 4.06228 1.13195C3.98924 1.08141 3.95477 1.00123 3.97007 0.917501C3.98205 0.851973 3.93862 0.789141 3.87308 0.777178C3.80766 0.765254 3.74473 0.808624 3.73276 0.87417C3.70044 1.05109 3.7741 1.22589 3.92499 1.33031C4.00553 1.38606 4.09708 1.41415 4.1884 1.41415C4.26814 1.41414 4.34773 1.39272 4.41961 1.34956V1.34956ZM4.25458 1.86746C4.29982 1.81857 4.29686 1.74226 4.24796 1.697C4.19909 1.65177 4.12278 1.65473 4.07751 1.7036C4.01971 1.76607 3.9349 1.78661 3.85063 1.75851C3.76637 1.73041 3.71085 1.66309 3.7021 1.57841C3.69526 1.51214 3.6361 1.46388 3.56972 1.47082C3.50346 1.47767 3.45529 1.53693 3.46213 1.60319C3.48062 1.7821 3.60024 1.92931 3.77431 1.98734C3.82414 2.00396 3.87475 2.01205 3.92452 2.01205C4.04864 2.01206 4.16737 1.96168 4.25458 1.86746ZM3.85931 3.36166C4.04032 3.3315 4.18146 3.20481 4.22766 3.03099C4.24478 2.9666 4.20646 2.90055 4.14208 2.88344C4.07762 2.86628 4.01164 2.90465 3.99453 2.96902C3.97266 3.05129 3.90729 3.10912 3.81968 3.12371C3.73202 3.1383 3.6515 3.10478 3.60416 3.03404C3.5671 2.97868 3.49218 2.96382 3.43683 3.0009C3.38147 3.03795 3.36664 3.11286 3.40368 3.16822C3.48896 3.29564 3.62839 3.36828 3.77982 3.36828C3.80602 3.36828 3.83261 3.3661 3.85931 3.36166ZM4.12126 4.0193C4.28661 3.93973 4.38666 3.77859 4.38239 3.59878C4.38081 3.53219 4.32543 3.47915 4.25894 3.48106C4.19234 3.48264 4.13963 3.5379 4.14122 3.6045C4.14324 3.68961 4.09666 3.7634 4.01664 3.80193C3.93658 3.84045 3.84988 3.83081 3.7846 3.77614C3.73355 3.73338 3.65746 3.74009 3.61469 3.79114C3.57191 3.84221 3.57863 3.91828 3.62969 3.96106C3.7128 4.03068 3.81422 4.06645 3.91792 4.06644C3.98626 4.06645 4.05559 4.05091 4.12126 4.0193V4.0193ZM4.18388 2.44338C4.21851 2.38647 4.20043 2.31227 4.14352 2.27765C4.08664 2.24305 4.01242 2.26109 3.97779 2.31801C3.93355 2.39072 3.8545 2.42774 3.76634 2.41692C3.67818 2.40614 3.61037 2.3512 3.58497 2.26996C3.56508 2.20638 3.49739 2.17098 3.43384 2.19085C3.37026 2.21073 3.33484 2.27839 3.35472 2.34197C3.4084 2.51362 3.55491 2.6341 3.73705 2.65638C3.75666 2.65878 3.77639 2.65998 3.79615 2.65999C3.9556 2.66 4.1006 2.58028 4.18388 2.44338V2.44338Z" fill="#FF473E"/>
</svg>
