<svg width="1007" height="858" viewBox="0 0 1007 858" fill="none" xmlns="http://www.w3.org/2000/svg">
<mask id="mask0_4_673" style="mask-type:alpha" maskUnits="userSpaceOnUse" x="3" y="4" width="1001" height="850">
<path d="M3.5 354.287L504.056 854L1003.5 359.864C785.48 -81.8459 261.565 -144.31 3.5 354.287Z" fill="#C4C4C4"/>
</mask>
<g mask="url(#mask0_4_673)">
<rect x="59.1173" y="-36.1555" width="55.6173" height="55.7715" fill="#538B40"/>
<rect x="114.735" y="-36.1555" width="55.6173" height="55.7715" fill="#347F3C"/>
<rect x="59.1173" y="19.6161" width="55.6173" height="55.7715" fill="#2D7E3C"/>
<rect x="114.735" y="19.6161" width="55.6173" height="55.7715" fill="#2C6230"/>
<rect x="59.1173" y="410.017" width="55.6173" height="55.7715" fill="#538B40"/>
<rect x="114.735" y="410.017" width="55.6173" height="55.7715" fill="#347F3C"/>
<rect x="59.1173" y="465.788" width="55.6173" height="55.7714" fill="#2D7E3C"/>
<rect x="114.735" y="465.788" width="55.6173" height="55.7714" fill="#2C6230"/>
<rect x="281.587" y="-36.1555" width="55.6173" height="55.7715" fill="#538B40"/>
<rect x="337.204" y="-36.1555" width="55.6174" height="55.7715" fill="#347F3C"/>
<rect x="281.587" y="19.6161" width="55.6173" height="55.7715" fill="#2D7E3C"/>
<rect x="337.204" y="19.6161" width="55.6174" height="55.7715" fill="#2C6230"/>
<rect x="281.587" y="410.017" width="55.6173" height="55.7715" fill="#538B40"/>
<rect x="337.204" y="410.017" width="55.6174" height="55.7715" fill="#347F3C"/>
<rect x="281.587" y="465.788" width="55.6173" height="55.7714" fill="#2D7E3C"/>
<rect x="337.204" y="465.788" width="55.6174" height="55.7714" fill="#2C6230"/>
<rect x="59.1173" y="186.931" width="55.6173" height="55.7715" fill="#538B40"/>
<rect x="114.735" y="186.931" width="55.6173" height="55.7715" fill="#347F3C"/>
<rect x="59.1173" y="242.702" width="55.6173" height="55.7715" fill="#2D7E3C"/>
<rect x="114.735" y="242.702" width="55.6173" height="55.7715" fill="#2C6230"/>
<rect x="59.1173" y="633.103" width="55.6173" height="55.7715" fill="#538B40"/>
<rect x="114.735" y="633.103" width="55.6173" height="55.7715" fill="#347F3C"/>
<rect x="59.1173" y="688.874" width="55.6173" height="55.7715" fill="#2D7E3C"/>
<rect x="114.735" y="688.874" width="55.6173" height="55.7715" fill="#2C6230"/>
<rect x="281.587" y="186.931" width="55.6173" height="55.7715" fill="#538B40"/>
<rect x="337.204" y="186.931" width="55.6174" height="55.7715" fill="#347F3C"/>
<rect x="281.587" y="242.702" width="55.6173" height="55.7715" fill="#2D7E3C"/>
<rect x="337.204" y="242.702" width="55.6174" height="55.7715" fill="#2C6230"/>
<rect x="281.587" y="633.103" width="55.6173" height="55.7715" fill="#538B40"/>
<rect x="337.204" y="633.103" width="55.6174" height="55.7715" fill="#347F3C"/>
<rect x="281.587" y="688.874" width="55.6173" height="55.7715" fill="#2D7E3C"/>
<rect x="337.204" y="688.874" width="55.6174" height="55.7715" fill="#2C6230"/>
<rect x="170.352" y="-36.1555" width="55.6173" height="55.7715" fill="#538B40"/>
<rect x="225.969" y="-36.1555" width="55.6174" height="55.7715" fill="#347F3C"/>
<rect x="170.352" y="19.6161" width="55.6173" height="55.7715" fill="#2D7E3C"/>
<rect x="225.969" y="19.6161" width="55.6174" height="55.7715" fill="#2C6230"/>
<rect x="170.352" y="410.017" width="55.6173" height="55.7715" fill="#538B40"/>
<rect x="225.969" y="410.017" width="55.6174" height="55.7715" fill="#347F3C"/>
<rect x="170.352" y="465.788" width="55.6173" height="55.7714" fill="#2D7E3C"/>
<rect x="225.969" y="465.788" width="55.6174" height="55.7714" fill="#2C6230"/>
<rect x="3.49988" y="-36.1555" width="55.6173" height="55.7715" fill="#347F3C"/>
<rect x="3.49988" y="19.6161" width="55.6173" height="55.7715" fill="#2C6230"/>
<rect x="392.821" y="-36.1555" width="55.6173" height="55.7715" fill="#538B40"/>
<rect x="448.439" y="-36.1555" width="55.6174" height="55.7715" fill="#347F3C"/>
<rect x="392.821" y="19.6161" width="55.6173" height="55.7715" fill="#2D7E3C"/>
<rect x="448.439" y="19.6161" width="55.6174" height="55.7715" fill="#2C6230"/>
<rect x="3.49988" y="410.017" width="55.6173" height="55.7715" fill="#347F3C"/>
<rect x="3.49988" y="465.788" width="55.6173" height="55.7714" fill="#2C6230"/>
<rect x="392.821" y="410.017" width="55.6173" height="55.7715" fill="#538B40"/>
<rect x="448.439" y="410.017" width="55.6174" height="55.7715" fill="#347F3C"/>
<rect x="392.821" y="465.788" width="55.6173" height="55.7714" fill="#2D7E3C"/>
<rect x="448.439" y="465.788" width="55.6174" height="55.7714" fill="#2C6230"/>
<rect x="170.352" y="186.931" width="55.6173" height="55.7715" fill="#538B40"/>
<rect x="225.969" y="186.931" width="55.6174" height="55.7715" fill="#347F3C"/>
<rect x="170.352" y="242.702" width="55.6173" height="55.7715" fill="#2D7E3C"/>
<rect x="225.969" y="242.702" width="55.6174" height="55.7715" fill="#2C6230"/>
<rect x="170.352" y="633.103" width="55.6173" height="55.7715" fill="#538B40"/>
<rect x="225.969" y="633.103" width="55.6174" height="55.7715" fill="#347F3C"/>
<rect x="170.352" y="688.874" width="55.6173" height="55.7715" fill="#2D7E3C"/>
<rect x="225.969" y="688.874" width="55.6174" height="55.7715" fill="#2C6230"/>
<rect x="3.49988" y="186.931" width="55.6173" height="55.7715" fill="#347F3C"/>
<rect x="3.49988" y="242.702" width="55.6173" height="55.7715" fill="#2C6230"/>
<rect x="392.821" y="186.931" width="55.6173" height="55.7715" fill="#538B40"/>
<rect x="448.439" y="186.931" width="55.6174" height="55.7715" fill="#347F3C"/>
<rect x="392.821" y="242.702" width="55.6173" height="55.7715" fill="#2D7E3C"/>
<rect x="448.439" y="242.702" width="55.6174" height="55.7715" fill="#2C6230"/>
<rect x="3.49988" y="633.103" width="55.6173" height="55.7715" fill="#347F3C"/>
<rect x="3.49988" y="688.874" width="55.6173" height="55.7715" fill="#2C6230"/>
<rect x="392.821" y="633.103" width="55.6173" height="55.7715" fill="#538B40"/>
<rect x="448.439" y="633.103" width="55.6174" height="55.7715" fill="#347F3C"/>
<rect x="392.821" y="688.874" width="55.6173" height="55.7715" fill="#2D7E3C"/>
<rect x="448.439" y="688.874" width="55.6174" height="55.7715" fill="#2C6230"/>
<rect x="59.1173" y="75.3876" width="55.6173" height="55.7715" fill="#538B40"/>
<rect x="114.735" y="75.3876" width="55.6173" height="55.7715" fill="#347F3C"/>
<rect x="59.1173" y="131.159" width="55.6173" height="55.7715" fill="#2D7E3C"/>
<rect x="114.735" y="131.159" width="55.6173" height="55.7715" fill="#2C6230"/>
<rect x="59.1173" y="521.56" width="55.6173" height="55.7715" fill="#538B40"/>
<rect x="114.735" y="521.56" width="55.6173" height="55.7715" fill="#347F3C"/>
<rect x="59.1173" y="577.331" width="55.6173" height="55.7715" fill="#2D7E3C"/>
<rect x="114.735" y="577.331" width="55.6173" height="55.7715" fill="#2C6230"/>
<rect x="281.587" y="75.3876" width="55.6173" height="55.7715" fill="#538B40"/>
<rect x="337.204" y="75.3876" width="55.6174" height="55.7715" fill="#347F3C"/>
<rect x="281.587" y="131.159" width="55.6173" height="55.7715" fill="#2D7E3C"/>
<rect x="337.204" y="131.159" width="55.6174" height="55.7715" fill="#2C6230"/>
<rect x="281.587" y="521.56" width="55.6173" height="55.7715" fill="#538B40"/>
<rect x="337.204" y="521.56" width="55.6174" height="55.7715" fill="#347F3C"/>
<rect x="281.587" y="577.331" width="55.6173" height="55.7715" fill="#2D7E3C"/>
<rect x="337.204" y="577.331" width="55.6174" height="55.7715" fill="#2C6230"/>
<rect x="59.1173" y="298.474" width="55.6173" height="55.7715" fill="#538B40"/>
<rect x="114.735" y="298.474" width="55.6173" height="55.7715" fill="#347F3C"/>
<rect x="59.1173" y="354.245" width="55.6173" height="55.7715" fill="#2D7E3C"/>
<rect x="114.735" y="354.245" width="55.6173" height="55.7715" fill="#2C6230"/>
<rect x="59.1173" y="744.646" width="55.6173" height="55.7715" fill="#538B40"/>
<rect x="114.735" y="744.646" width="55.6173" height="55.7715" fill="#347F3C"/>
<rect x="59.1173" y="800.417" width="55.6173" height="55.7715" fill="#2D7E3C"/>
<rect x="114.735" y="800.417" width="55.6173" height="55.7715" fill="#2C6230"/>
<rect x="281.587" y="298.474" width="55.6173" height="55.7715" fill="#538B40"/>
<rect x="337.204" y="298.474" width="55.6174" height="55.7715" fill="#347F3C"/>
<rect x="281.587" y="354.245" width="55.6173" height="55.7715" fill="#2D7E3C"/>
<rect x="337.204" y="354.245" width="55.6174" height="55.7715" fill="#2C6230"/>
<rect x="281.587" y="744.646" width="55.6173" height="55.7715" fill="#538B40"/>
<rect x="337.204" y="744.646" width="55.6174" height="55.7715" fill="#347F3C"/>
<rect x="281.587" y="800.417" width="55.6173" height="55.7715" fill="#2D7E3C"/>
<rect x="337.204" y="800.417" width="55.6174" height="55.7715" fill="#2C6230"/>
<rect x="170.352" y="75.3876" width="55.6173" height="55.7715" fill="#538B40"/>
<rect x="225.969" y="75.3876" width="55.6174" height="55.7715" fill="#347F3C"/>
<rect x="170.352" y="131.159" width="55.6173" height="55.7715" fill="#2D7E3C"/>
<rect x="225.969" y="131.159" width="55.6174" height="55.7715" fill="#2C6230"/>
<rect x="170.352" y="521.56" width="55.6173" height="55.7715" fill="#538B40"/>
<rect x="225.969" y="521.56" width="55.6174" height="55.7715" fill="#347F3C"/>
<rect x="170.352" y="577.331" width="55.6173" height="55.7715" fill="#2D7E3C"/>
<rect x="225.969" y="577.331" width="55.6174" height="55.7715" fill="#2C6230"/>
<rect x="3.49988" y="75.3876" width="55.6173" height="55.7715" fill="#347F3C"/>
<rect x="3.49988" y="131.159" width="55.6173" height="55.7715" fill="#2C6230"/>
<rect x="392.821" y="75.3876" width="55.6173" height="55.7715" fill="#538B40"/>
<rect x="448.439" y="75.3876" width="55.6174" height="55.7715" fill="#347F3C"/>
<rect x="392.821" y="131.159" width="55.6173" height="55.7715" fill="#2D7E3C"/>
<rect x="448.439" y="131.159" width="55.6174" height="55.7715" fill="#2C6230"/>
<rect x="3.49988" y="521.56" width="55.6173" height="55.7715" fill="#347F3C"/>
<rect x="3.49988" y="577.331" width="55.6173" height="55.7715" fill="#2C6230"/>
<rect x="392.821" y="521.56" width="55.6173" height="55.7715" fill="#538B40"/>
<rect x="448.439" y="521.56" width="55.6174" height="55.7715" fill="#347F3C"/>
<rect x="392.821" y="577.331" width="55.6173" height="55.7715" fill="#2D7E3C"/>
<rect x="448.439" y="577.331" width="55.6174" height="55.7715" fill="#2C6230"/>
<rect x="170.352" y="298.474" width="55.6173" height="55.7715" fill="#538B40"/>
<rect x="225.969" y="298.474" width="55.6174" height="55.7715" fill="#347F3C"/>
<rect x="170.352" y="354.245" width="55.6173" height="55.7715" fill="#2D7E3C"/>
<rect x="225.969" y="354.245" width="55.6174" height="55.7715" fill="#2C6230"/>
<rect x="170.352" y="744.646" width="55.6173" height="55.7715" fill="#538B40"/>
<rect x="225.969" y="744.646" width="55.6174" height="55.7715" fill="#347F3C"/>
<rect x="170.352" y="800.417" width="55.6173" height="55.7715" fill="#2D7E3C"/>
<rect x="225.969" y="800.417" width="55.6174" height="55.7715" fill="#2C6230"/>
<rect x="3.49988" y="298.474" width="55.6173" height="55.7715" fill="#347F3C"/>
<rect x="3.49988" y="354.245" width="55.6173" height="55.7715" fill="#2C6230"/>
<rect x="392.821" y="298.474" width="55.6173" height="55.7715" fill="#538B40"/>
<rect x="448.439" y="298.474" width="55.6174" height="55.7715" fill="#347F3C"/>
<rect x="392.821" y="354.245" width="55.6173" height="55.7715" fill="#2D7E3C"/>
<rect x="448.439" y="354.245" width="55.6174" height="55.7715" fill="#2C6230"/>
<rect x="3.49988" y="744.646" width="55.6173" height="55.7715" fill="#347F3C"/>
<rect x="3.49988" y="800.417" width="55.6173" height="55.7715" fill="#2C6230"/>
<rect x="392.821" y="744.646" width="55.6173" height="55.7715" fill="#538B40"/>
<rect x="448.439" y="744.646" width="55.6174" height="55.7715" fill="#347F3C"/>
<rect x="392.821" y="800.417" width="55.6173" height="55.7715" fill="#2D7E3C"/>
<rect x="448.439" y="800.417" width="55.6174" height="55.7715" fill="#2C6230"/>
<rect x="504.056" y="-36.1555" width="55.6173" height="55.7715" fill="#538B40"/>
<rect x="559.673" y="-36.1555" width="55.6173" height="55.7715" fill="#347F3C"/>
<rect x="504.056" y="19.6161" width="55.6174" height="55.7715" fill="#2D7E3C"/>
<rect x="559.673" y="19.6161" width="55.6173" height="55.7715" fill="#2C6230"/>
<rect x="948.995" y="-36.1555" width="55.6174" height="55.7715" fill="#538B40"/>
<rect x="948.995" y="19.6161" width="55.6173" height="55.7715" fill="#2D7E3C"/>
<rect x="504.056" y="410.017" width="55.6173" height="55.7715" fill="#538B40"/>
<rect x="559.673" y="410.017" width="55.6173" height="55.7715" fill="#347F3C"/>
<rect x="504.056" y="465.788" width="55.6174" height="55.7714" fill="#2D7E3C"/>
<rect x="559.673" y="465.788" width="55.6173" height="55.7714" fill="#2C6230"/>
<rect x="948.995" y="410.017" width="55.6174" height="55.7715" fill="#538B40"/>
<rect x="948.995" y="465.788" width="55.6173" height="55.7714" fill="#2D7E3C"/>
<rect x="726.526" y="-36.1555" width="55.6174" height="55.7715" fill="#538B40"/>
<rect x="782.143" y="-36.1555" width="55.6174" height="55.7715" fill="#347F3C"/>
<rect x="726.526" y="19.6161" width="55.6173" height="55.7715" fill="#2D7E3C"/>
<rect x="782.143" y="19.6161" width="55.6174" height="55.7715" fill="#2C6230"/>
<rect x="726.526" y="410.017" width="55.6174" height="55.7715" fill="#538B40"/>
<rect x="782.143" y="410.017" width="55.6174" height="55.7715" fill="#347F3C"/>
<rect x="726.526" y="465.788" width="55.6173" height="55.7714" fill="#2D7E3C"/>
<rect x="782.143" y="465.788" width="55.6174" height="55.7714" fill="#2C6230"/>
<rect x="504.056" y="186.931" width="55.6173" height="55.7715" fill="#538B40"/>
<rect x="559.673" y="186.931" width="55.6173" height="55.7715" fill="#347F3C"/>
<rect x="504.056" y="242.702" width="55.6174" height="55.7715" fill="#2D7E3C"/>
<rect x="559.673" y="242.702" width="55.6173" height="55.7715" fill="#2C6230"/>
<rect x="948.995" y="186.931" width="55.6174" height="55.7715" fill="#538B40"/>
<rect x="948.995" y="242.702" width="55.6173" height="55.7715" fill="#2D7E3C"/>
<rect x="504.056" y="633.103" width="55.6173" height="55.7715" fill="#538B40"/>
<rect x="559.673" y="633.103" width="55.6173" height="55.7715" fill="#347F3C"/>
<rect x="504.056" y="688.874" width="55.6174" height="55.7715" fill="#2D7E3C"/>
<rect x="559.673" y="688.874" width="55.6173" height="55.7715" fill="#2C6230"/>
<rect x="948.995" y="633.103" width="55.6174" height="55.7715" fill="#538B40"/>
<rect x="948.995" y="688.874" width="55.6173" height="55.7715" fill="#2D7E3C"/>
<rect x="726.526" y="186.931" width="55.6174" height="55.7715" fill="#538B40"/>
<rect x="782.143" y="186.931" width="55.6174" height="55.7715" fill="#347F3C"/>
<rect x="726.526" y="242.702" width="55.6173" height="55.7715" fill="#2D7E3C"/>
<rect x="782.143" y="242.702" width="55.6174" height="55.7715" fill="#2C6230"/>
<rect x="726.526" y="633.103" width="55.6174" height="55.7715" fill="#538B40"/>
<rect x="782.143" y="633.103" width="55.6174" height="55.7715" fill="#347F3C"/>
<rect x="726.526" y="688.874" width="55.6173" height="55.7715" fill="#2D7E3C"/>
<rect x="782.143" y="688.874" width="55.6174" height="55.7715" fill="#2C6230"/>
<rect x="615.291" y="-36.1555" width="55.6174" height="55.7715" fill="#538B40"/>
<rect x="670.908" y="-36.1555" width="55.6173" height="55.7715" fill="#347F3C"/>
<rect x="615.291" y="19.6161" width="55.6174" height="55.7715" fill="#2D7E3C"/>
<rect x="670.908" y="19.6161" width="55.6173" height="55.7715" fill="#2C6230"/>
<rect x="615.291" y="410.017" width="55.6174" height="55.7715" fill="#538B40"/>
<rect x="670.908" y="410.017" width="55.6173" height="55.7715" fill="#347F3C"/>
<rect x="615.291" y="465.788" width="55.6174" height="55.7714" fill="#2D7E3C"/>
<rect x="670.908" y="465.788" width="55.6173" height="55.7714" fill="#2C6230"/>
<rect x="837.76" y="-36.1555" width="55.6173" height="55.7715" fill="#538B40"/>
<rect x="893.377" y="-36.1555" width="55.6174" height="55.7715" fill="#347F3C"/>
<rect x="837.76" y="19.6161" width="55.6173" height="55.7715" fill="#2D7E3C"/>
<rect x="893.377" y="19.6161" width="55.6174" height="55.7715" fill="#2C6230"/>
<rect x="837.76" y="410.017" width="55.6173" height="55.7715" fill="#538B40"/>
<rect x="893.377" y="410.017" width="55.6174" height="55.7715" fill="#347F3C"/>
<rect x="837.76" y="465.788" width="55.6173" height="55.7714" fill="#2D7E3C"/>
<rect x="893.377" y="465.788" width="55.6174" height="55.7714" fill="#2C6230"/>
<rect x="615.291" y="186.931" width="55.6174" height="55.7715" fill="#538B40"/>
<rect x="670.908" y="186.931" width="55.6173" height="55.7715" fill="#347F3C"/>
<rect x="615.291" y="242.702" width="55.6174" height="55.7715" fill="#2D7E3C"/>
<rect x="670.908" y="242.702" width="55.6173" height="55.7715" fill="#2C6230"/>
<rect x="615.291" y="633.103" width="55.6174" height="55.7715" fill="#538B40"/>
<rect x="670.908" y="633.103" width="55.6173" height="55.7715" fill="#347F3C"/>
<rect x="615.291" y="688.874" width="55.6174" height="55.7715" fill="#2D7E3C"/>
<rect x="670.908" y="688.874" width="55.6173" height="55.7715" fill="#2C6230"/>
<rect x="837.76" y="186.931" width="55.6173" height="55.7715" fill="#538B40"/>
<rect x="893.377" y="186.931" width="55.6174" height="55.7715" fill="#347F3C"/>
<rect x="837.76" y="242.702" width="55.6173" height="55.7715" fill="#2D7E3C"/>
<rect x="893.377" y="242.702" width="55.6174" height="55.7715" fill="#2C6230"/>
<rect x="837.76" y="633.103" width="55.6173" height="55.7715" fill="#538B40"/>
<rect x="893.377" y="633.103" width="55.6174" height="55.7715" fill="#347F3C"/>
<rect x="837.76" y="688.874" width="55.6173" height="55.7715" fill="#2D7E3C"/>
<rect x="893.377" y="688.874" width="55.6174" height="55.7715" fill="#2C6230"/>
<rect x="504.056" y="75.3876" width="55.6173" height="55.7715" fill="#538B40"/>
<rect x="559.673" y="75.3876" width="55.6173" height="55.7715" fill="#347F3C"/>
<rect x="504.056" y="131.159" width="55.6174" height="55.7715" fill="#2D7E3C"/>
<rect x="559.673" y="131.159" width="55.6173" height="55.7715" fill="#2C6230"/>
<rect x="948.995" y="75.3876" width="55.6174" height="55.7715" fill="#538B40"/>
<rect x="948.995" y="131.159" width="55.6173" height="55.7715" fill="#2D7E3C"/>
<rect x="504.056" y="521.56" width="55.6173" height="55.7715" fill="#538B40"/>
<rect x="559.673" y="521.56" width="55.6173" height="55.7715" fill="#347F3C"/>
<rect x="504.056" y="577.331" width="55.6174" height="55.7715" fill="#2D7E3C"/>
<rect x="559.673" y="577.331" width="55.6173" height="55.7715" fill="#2C6230"/>
<rect x="948.995" y="521.56" width="55.6174" height="55.7715" fill="#538B40"/>
<rect x="948.995" y="577.331" width="55.6173" height="55.7715" fill="#2D7E3C"/>
<rect x="726.526" y="75.3876" width="55.6174" height="55.7715" fill="#538B40"/>
<rect x="782.143" y="75.3876" width="55.6174" height="55.7715" fill="#347F3C"/>
<rect x="726.526" y="131.159" width="55.6173" height="55.7715" fill="#2D7E3C"/>
<rect x="782.143" y="131.159" width="55.6174" height="55.7715" fill="#2C6230"/>
<rect x="726.526" y="521.56" width="55.6174" height="55.7715" fill="#538B40"/>
<rect x="782.143" y="521.56" width="55.6174" height="55.7715" fill="#347F3C"/>
<rect x="726.526" y="577.331" width="55.6173" height="55.7715" fill="#2D7E3C"/>
<rect x="782.143" y="577.331" width="55.6174" height="55.7715" fill="#2C6230"/>
<rect x="504.056" y="298.474" width="55.6173" height="55.7715" fill="#538B40"/>
<rect x="559.673" y="298.474" width="55.6173" height="55.7715" fill="#347F3C"/>
<rect x="504.056" y="354.245" width="55.6174" height="55.7715" fill="#2D7E3C"/>
<rect x="559.673" y="354.245" width="55.6173" height="55.7715" fill="#2C6230"/>
<rect x="948.995" y="298.474" width="55.6174" height="55.7715" fill="#538B40"/>
<rect x="948.995" y="354.245" width="55.6173" height="55.7715" fill="#2D7E3C"/>
<rect x="504.056" y="744.646" width="55.6173" height="55.7715" fill="#538B40"/>
<rect x="559.673" y="744.646" width="55.6173" height="55.7715" fill="#347F3C"/>
<rect x="504.056" y="800.417" width="55.6174" height="55.7715" fill="#2D7E3C"/>
<rect x="559.673" y="800.417" width="55.6173" height="55.7715" fill="#2C6230"/>
<rect x="948.995" y="744.646" width="55.6174" height="55.7715" fill="#538B40"/>
<rect x="948.995" y="800.417" width="55.6173" height="55.7715" fill="#2D7E3C"/>
<rect x="726.526" y="298.474" width="55.6174" height="55.7715" fill="#538B40"/>
<rect x="782.143" y="298.474" width="55.6174" height="55.7715" fill="#347F3C"/>
<rect x="726.526" y="354.245" width="55.6173" height="55.7715" fill="#2D7E3C"/>
<rect x="782.143" y="354.245" width="55.6174" height="55.7715" fill="#2C6230"/>
<rect x="726.526" y="744.646" width="55.6174" height="55.7715" fill="#538B40"/>
<rect x="782.143" y="744.646" width="55.6174" height="55.7715" fill="#347F3C"/>
<rect x="726.526" y="800.417" width="55.6173" height="55.7715" fill="#2D7E3C"/>
<rect x="782.143" y="800.417" width="55.6174" height="55.7715" fill="#2C6230"/>
<rect x="615.291" y="75.3876" width="55.6174" height="55.7715" fill="#538B40"/>
<rect x="670.908" y="75.3876" width="55.6173" height="55.7715" fill="#347F3C"/>
<rect x="615.291" y="131.159" width="55.6174" height="55.7715" fill="#2D7E3C"/>
<rect x="670.908" y="131.159" width="55.6173" height="55.7715" fill="#2C6230"/>
<rect x="615.291" y="521.56" width="55.6174" height="55.7715" fill="#538B40"/>
<rect x="670.908" y="521.56" width="55.6173" height="55.7715" fill="#347F3C"/>
<rect x="615.291" y="577.331" width="55.6174" height="55.7715" fill="#2D7E3C"/>
<rect x="670.908" y="577.331" width="55.6173" height="55.7715" fill="#2C6230"/>
<rect x="837.76" y="75.3876" width="55.6173" height="55.7715" fill="#538B40"/>
<rect x="893.377" y="75.3876" width="55.6174" height="55.7715" fill="#347F3C"/>
<rect x="837.76" y="131.159" width="55.6173" height="55.7715" fill="#2D7E3C"/>
<rect x="893.377" y="131.159" width="55.6174" height="55.7715" fill="#2C6230"/>
<rect x="837.76" y="521.56" width="55.6173" height="55.7715" fill="#538B40"/>
<rect x="893.377" y="521.56" width="55.6174" height="55.7715" fill="#347F3C"/>
<rect x="837.76" y="577.331" width="55.6173" height="55.7715" fill="#2D7E3C"/>
<rect x="893.377" y="577.331" width="55.6174" height="55.7715" fill="#2C6230"/>
<rect x="615.291" y="298.474" width="55.6174" height="55.7715" fill="#538B40"/>
<rect x="670.908" y="298.474" width="55.6173" height="55.7715" fill="#347F3C"/>
<rect x="615.291" y="354.245" width="55.6174" height="55.7715" fill="#2D7E3C"/>
<rect x="670.908" y="354.245" width="55.6173" height="55.7715" fill="#2C6230"/>
<rect x="615.291" y="744.646" width="55.6174" height="55.7715" fill="#538B40"/>
<rect x="670.908" y="744.646" width="55.6173" height="55.7715" fill="#347F3C"/>
<rect x="615.291" y="800.417" width="55.6174" height="55.7715" fill="#2D7E3C"/>
<rect x="670.908" y="800.417" width="55.6173" height="55.7715" fill="#2C6230"/>
<g clip-path="url(#clip0_4_673)">
<path d="M871.291 1256.65C730.797 1256.65 616.497 1142.35 616.497 1001.85C616.497 861.357 730.797 747.057 871.291 747.057C1011.78 747.057 1126.08 861.357 1126.08 1001.85C1126.08 1142.35 1011.78 1256.65 871.291 1256.65Z" fill="#E5E4DF"/>
<path d="M1066.15 1165.82C1058.91 1174.42 1051.11 1182.53 1042.81 1190.11C1004.3 1135.34 983.548 1070.19 983.548 1001.85C983.548 933.512 1004.3 868.365 1042.81 813.594C1051.11 821.172 1058.91 829.287 1066.15 837.887C1033.88 886.016 1016.54 942.6 1016.54 1001.85C1016.54 1061.1 1033.88 1117.69 1066.15 1165.82ZM676.432 837.887C708.705 886.016 726.045 942.6 726.045 1001.85C726.045 1061.1 708.705 1117.69 676.432 1165.82C683.674 1174.42 691.472 1182.53 699.776 1190.11C738.286 1135.34 759.035 1070.19 759.035 1001.85C759.035 933.512 738.286 868.365 699.776 813.594C691.471 821.172 683.673 829.287 676.432 837.887Z" fill="#BFBCAF"/>
<path d="M697.976 889.454C689.809 889.454 681.662 887.26 674.299 882.841C668.45 879.331 666.554 871.744 670.065 865.895C673.575 860.045 681.162 858.15 687.011 861.661C694.485 866.148 703.412 865.735 710.89 860.558C718.369 855.382 721.898 847.172 720.332 838.598C719.106 831.888 723.553 825.454 730.264 824.229C736.97 823.004 743.407 827.45 744.633 834.161C747.942 852.279 740.399 870.177 724.949 880.87C716.702 886.577 707.326 889.454 697.976 889.454ZM740.378 948.151C758.204 942.207 770.453 927.134 772.345 908.814C773.046 902.029 768.114 895.96 761.328 895.259C754.549 894.554 748.474 899.49 747.773 906.276C746.877 914.946 741.191 921.84 732.564 924.718C723.937 927.593 715.251 925.494 709.331 919.096C704.697 914.089 696.883 913.788 691.876 918.42C686.87 923.053 686.567 930.868 691.2 935.875C700.13 945.524 712.287 950.683 724.998 950.683C730.092 950.681 735.277 949.852 740.378 948.151ZM778.331 1069.07C782.125 1063.4 780.606 1055.73 774.937 1051.94C769.269 1048.14 761.597 1049.66 757.803 1055.33C752.955 1062.58 744.708 1066.01 735.732 1064.51C726.761 1063.02 720.068 1057.1 717.829 1048.67C716.077 1042.08 709.311 1038.15 702.72 1039.91C696.127 1041.66 692.203 1048.43 693.955 1055.02C698.686 1072.82 713.139 1085.79 731.673 1088.88C734.41 1089.33 737.129 1089.56 739.815 1089.56C755.318 1089.56 769.599 1082.12 778.331 1069.07ZM755.186 1150.26C760.415 1145.88 761.103 1138.09 756.722 1132.86C752.34 1127.63 744.55 1126.94 739.322 1131.32C732.641 1136.92 723.759 1137.91 715.564 1133.96C707.369 1130.02 702.6 1122.46 702.807 1113.75C702.969 1106.93 697.573 1101.27 690.753 1101.11C690.653 1101.1 690.553 1101.1 690.454 1101.1C683.769 1101.1 678.272 1106.44 678.112 1113.16C677.674 1131.57 687.92 1148.07 704.851 1156.22C711.577 1159.46 718.674 1161.05 725.672 1161.05C736.288 1161.05 746.677 1157.39 755.186 1150.26ZM744.193 1016.66C762.844 1014.38 777.845 1002.04 783.343 984.465C785.379 977.954 781.752 971.026 775.242 968.99C768.729 966.952 761.803 970.581 759.767 977.091C757.165 985.41 750.222 991.036 741.194 992.14C732.164 993.244 724.071 989.456 719.542 982.01C715.997 976.183 708.399 974.332 702.57 977.877C696.742 981.422 694.892 989.021 698.437 994.848C706.965 1008.87 721.812 1017.03 738.141 1017.03C740.164 1017.03 742.185 1016.91 744.193 1016.66ZM1067.86 882.841C1073.71 879.331 1075.61 871.744 1072.1 865.895C1068.59 860.046 1061 858.15 1055.15 861.661C1047.68 866.147 1038.75 865.735 1031.27 860.558C1023.79 855.382 1020.26 847.172 1021.83 838.598C1023.06 831.888 1018.61 825.454 1011.9 824.229C1005.2 823.008 998.756 827.449 997.53 834.161C994.221 852.278 1001.76 870.177 1017.21 880.87C1025.46 886.578 1034.84 889.455 1044.19 889.455C1052.35 889.454 1060.5 887.26 1067.86 882.841ZM1050.96 935.874C1055.6 930.867 1055.29 923.053 1050.29 918.419C1045.28 913.787 1037.47 914.09 1032.83 919.095C1026.91 925.492 1018.23 927.595 1009.6 924.717C1000.97 921.84 995.287 914.946 994.391 906.275C993.69 899.489 987.632 894.547 980.835 895.258C974.05 895.959 969.117 902.028 969.818 908.813C971.711 927.133 983.96 942.207 1001.78 948.15C1006.89 949.851 1012.07 950.68 1017.17 950.68C1029.88 950.681 1042.03 945.522 1050.96 935.874ZM1010.49 1088.88C1029.02 1085.79 1043.48 1072.82 1048.21 1055.02C1049.96 1048.43 1046.04 1041.66 1039.44 1039.91C1032.84 1038.15 1026.09 1042.08 1024.33 1048.67C1022.1 1057.1 1015.4 1063.02 1006.43 1064.51C997.454 1066.01 989.209 1062.57 984.361 1055.33C980.567 1049.66 972.895 1048.14 967.227 1051.94C961.558 1055.73 960.039 1063.4 963.832 1069.07C972.565 1082.12 986.843 1089.56 1002.35 1089.56C1005.03 1089.56 1007.75 1089.33 1010.49 1088.88ZM1037.31 1156.22C1054.24 1148.07 1064.49 1131.57 1064.05 1113.16C1063.89 1106.34 1058.22 1100.91 1051.41 1101.11C1044.59 1101.27 1039.19 1106.93 1039.36 1113.75C1039.56 1122.46 1034.79 1130.02 1026.6 1133.96C1018.4 1137.91 1009.52 1136.92 1002.84 1131.32C997.611 1126.94 989.819 1127.63 985.44 1132.86C981.059 1138.09 981.747 1145.88 986.976 1150.26C995.486 1157.39 1005.87 1161.05 1016.49 1161.05C1023.49 1161.05 1030.59 1159.46 1037.31 1156.22ZM1043.72 994.848C1047.27 989.02 1045.42 981.422 1039.59 977.877C1033.77 974.334 1026.17 976.182 1022.62 982.01C1018.09 989.456 1010 993.247 1000.97 992.139C991.941 991.035 984.997 985.409 982.396 977.09C980.36 970.579 973.428 966.954 966.921 968.989C960.41 971.025 956.783 977.953 958.819 984.464C964.316 1002.04 979.318 1014.38 997.969 1016.66C999.977 1016.9 1002 1017.03 1004.02 1017.03C1020.35 1017.03 1035.2 1008.87 1043.72 994.848Z" fill="#FF473E"/>
</g>
<rect x="837.76" y="298.474" width="55.6173" height="55.7715" fill="#538B40"/>
<rect x="893.377" y="298.474" width="55.6174" height="55.7715" fill="#347F3C"/>
<rect x="837.76" y="354.245" width="55.6173" height="55.7715" fill="#2D7E3C"/>
<rect x="893.377" y="354.245" width="55.6174" height="55.7715" fill="#2C6230"/>
<rect x="837.76" y="744.646" width="55.6173" height="55.7715" fill="#538B40"/>
<rect x="893.377" y="744.646" width="55.6174" height="55.7715" fill="#347F3C"/>
<rect x="837.76" y="800.417" width="55.6173" height="55.7715" fill="#2D7E3C"/>
<rect x="893.377" y="800.417" width="55.6174" height="55.7715" fill="#2C6230"/>
</g>
<path d="M505.447 756.526L449.087 700.261C432.866 787.264 505.447 787.264 505.447 787.264C505.447 787.264 583.033 787.264 562.317 700.261L505.447 756.526Z" fill="#E4C688"/>
<path fill-rule="evenodd" clip-rule="evenodd" d="M449.087 700.261L254.89 506.392C336.092 240.703 683.144 258.55 755.447 509.183L562.317 700.261L505.447 756.526L449.087 700.261ZM538.539 670.144C513.778 660.024 499.896 659.872 475.135 670.144L363.9 559.716L505.168 415.826L649.774 559.716L538.539 670.144Z" fill="#E4C688"/>
<path d="M504 532C494.335 532 486.5 539.835 486.5 549.5V549.5C486.5 559.165 494.335 567 504 567H505C514.665 567 522.5 559.165 522.5 549.5V549.5C522.5 539.835 514.665 532 505 532H504Z" fill="#E4C688"/>
<rect width="22.2778" height="22.2778" transform="matrix(0.706127 -0.708086 0.706127 0.708086 657.56 561.874)" fill="white"/>
<rect width="22.2778" height="22.2778" transform="matrix(0.706127 -0.708085 0.706127 0.708085 488.483 392.328)" fill="white"/>
<rect width="22.2778" height="22.2778" transform="matrix(0.706127 -0.708086 0.706127 0.708086 326.081 561.874)" fill="white"/>
<rect width="14" height="4.1205" transform="matrix(1 0 -0.00277032 0.999996 497.518 548)" fill="white"/>
<path d="M506.281 754.685L518.517 742.415L512.955 734.607H498.494L493.897 742.415L506.281 754.685Z" fill="white"/>
<path d="M506.281 754.685L505.929 755.04L506.281 755.388L506.633 755.04L506.281 754.685ZM968.257 297.713C968.453 297.519 968.454 297.202 968.26 297.006C968.066 296.81 967.749 296.809 967.553 297.003L968.257 297.713ZM40.5593 292.541C40.3632 292.347 40.0466 292.348 39.8522 292.544C39.6579 292.741 39.6593 293.057 39.8555 293.252L40.5593 292.541ZM498.494 734.607V734.107H498.208L498.063 734.353L498.494 734.607ZM512.955 734.607L513.362 734.317L513.213 734.107H512.955V734.607ZM518.517 742.415L518.871 742.768L519.169 742.469L518.924 742.125L518.517 742.415ZM506.633 755.04L968.257 297.713L967.553 297.003L505.929 754.329L506.633 755.04ZM506.633 754.329L494.249 742.06L493.546 742.77L505.929 755.04L506.633 754.329ZM494.249 742.06L40.5593 292.541L39.8555 293.252L493.546 742.77L494.249 742.06ZM494.328 742.668L498.925 734.86L498.063 734.353L493.467 742.161L494.328 742.668ZM498.494 735.107H512.955V734.107H498.494V735.107ZM512.548 734.897L518.109 742.705L518.924 742.125L513.362 734.317L512.548 734.897ZM506.635 755.038L518.871 742.768L518.163 742.062L505.927 754.331L506.635 755.038Z" fill="white"/>
<path d="M1003.5 360L504 854L3.5 354.5C269.537 -139.064 761.049 -91.631 1003.5 360Z" stroke="black" stroke-width="5"/>
<defs>
<clipPath id="clip0_4_673">
<rect width="512" height="512" fill="white" transform="translate(615.291 744.646)"/>
</clipPath>
</defs>
</svg>
